<?xml version="1.0" encoding="iso-8859-1"?>
<!-- Generator: Adobe Illustrator 19.0.0, SVG Export Plug-In . SVG Version: 6.00 Build 0)  -->
<svg version="1.1" id="Layer_1" xmlns="http://www.w3.org/2000/svg" xmlns:xlink="http://www.w3.org/1999/xlink" x="0px" y="0px"
	 viewBox="0 0 512 512" style="enable-background:new 0 0 512 512;" xml:space="preserve">
<g>
	<polyline style="fill:#CFF09E;" points="279.36,427.083 279.36,497.842 232.642,497.842 232.642,427.083 	"/>
	<path style="fill:#CFF09E;" d="M174.412,216.358c0.116,0.007,0.234,0.013,0.35,0.02c1.394,0.088,2.786,0.2,4.178,0.327
		c0.242,0.023,0.484,0.042,0.726,0.067c1.314,0.127,2.625,0.273,3.934,0.435c0.316,0.04,0.633,0.078,0.949,0.119
		c1.259,0.164,2.514,0.343,3.769,0.539c0.364,0.057,0.728,0.116,1.093,0.176c1.22,0.2,2.438,0.412,3.654,0.643
		c0.389,0.074,0.779,0.153,1.168,0.229c1.196,0.236,2.391,0.483,3.583,0.749c0.398,0.089,0.794,0.185,1.191,0.277
		c1.188,0.276,2.374,0.558,3.556,0.864c0.371,0.096,0.74,0.201,1.111,0.3c1.21,0.323,2.421,0.651,3.624,1.005
		c0.258,0.075,0.512,0.16,0.77,0.238c4.209,1.264,8.372,2.714,12.477,4.36c0.147,0.059,0.297,0.112,0.445,0.173
		c0.971,0.394,1.932,0.813,2.897,1.227c0.582,0.251,1.168,0.491,1.747,0.749c0.858,0.382,1.707,0.786,2.56,1.185
		c0.678,0.317,1.358,0.63,2.032,0.958c0.798,0.389,1.588,0.796,2.381,1.199c0.719,0.367,1.44,0.733,2.155,1.113
		c0.756,0.402,1.505,0.817,2.255,1.232c0.742,0.411,1.481,0.823,2.217,1.247c0.723,0.418,1.443,0.844,2.16,1.274
		c0.752,0.45,1.501,0.907,2.247,1.373c0.695,0.433,1.386,0.873,2.075,1.319c0.759,0.491,1.513,0.992,2.265,1.499
		c0.665,0.449,1.329,0.899,1.989,1.36c0.767,0.535,1.528,1.084,2.286,1.635c0.633,0.46,1.266,0.919,1.893,1.39
		c0.388,0.292,0.774,0.582,1.161,0.878c9.603-7.366,19.896-13.397,30.639-18.089v-25.927c0-35.189-28.527-63.714-63.714-63.714
		h-94.657v82.173h0.001C142.887,216.937,158.708,215.401,174.412,216.358z"/>
</g>
<path style="fill:#507C5C;" d="M409.209,219.937c-1.428-3.995-4.571-7.139-8.568-8.566c-0.682-0.243-1.373-0.462-2.058-0.695
	v-71.888c0-7.819-6.34-14.157-14.157-14.157H360.48v-2.087c0-13.364-4.89-27.786-14.537-42.863
	c-4.213-6.586-12.966-8.511-19.555-4.297c-6.586,4.213-8.511,12.968-4.297,19.555c6.685,10.449,10.073,19.736,10.073,27.606v4.001
	c-19.047,4.285-35.465,15.561-46.421,30.991c-14.123-19.889-37.321-32.904-63.517-32.904h-42.392v-2.09
	c0-28.307,43.849-68.673,76.094-91.258c8.244,5.861,22.038,16.197,35.684,28.813c5.742,5.307,14.698,4.954,20.005-0.786
	c5.307-5.742,4.956-14.698-0.786-20.005c-23.226-21.471-46.171-36.405-47.136-37.031c-4.683-3.034-10.71-3.034-15.393,0
	c-0.964,0.624-23.866,15.532-47.072,36.971c-32.986,30.475-49.711,58.5-49.711,83.298v2.087h-23.944
	c-3.754,0-7.356,1.492-10.01,4.147c-2.654,2.654-4.147,6.256-4.147,10.01l0.001,71.881c-0.687,0.235-1.376,0.456-2.061,0.701
	c-3.995,1.427-7.138,4.571-8.566,8.566c-10.193,28.518-12.208,59.272-5.827,88.938c6.555,30.48,21.721,58.293,43.859,80.431
	c2.765,2.765,6.388,4.147,10.01,4.147c3.623,0,7.247-1.382,10.01-4.147c5.528-5.528,5.528-14.493,0-20.022
	c-34.809-34.809-47.603-86.5-33.508-133.377c7.322-2.213,14.743-3.77,22.188-4.709c0.736-0.088,1.47-0.187,2.206-0.262
	c0.249-0.027,0.5-0.05,0.749-0.076c6.979-0.671,14.028-0.801,21.088-0.369l0.294,0.016c1.261,0.081,2.52,0.181,3.786,0.297
	l0.65,0.059c1.191,0.115,2.378,0.248,3.551,0.392l0.869,0.11c1.138,0.147,2.272,0.31,3.419,0.488l0.975,0.157
	c1.107,0.181,2.213,0.375,3.309,0.582l1.063,0.21c1.08,0.212,2.158,0.435,3.25,0.68l1.065,0.249
	c1.072,0.249,2.142,0.503,3.236,0.786l0.981,0.266c1.094,0.293,2.189,0.588,3.293,0.913l0.681,0.211
	c3.845,1.155,7.641,2.482,11.304,3.953l0.381,0.147c0.698,0.283,1.39,0.582,2.084,0.881l1.208,0.517
	c0.304,0.129,0.61,0.258,0.898,0.385c0.631,0.282,1.259,0.578,1.887,0.873l0.946,0.443c0.442,0.207,0.885,0.412,1.315,0.621
	c0.644,0.314,1.283,0.641,1.921,0.967l0.406,0.207c0.59,0.3,1.182,0.602,1.781,0.92c0.681,0.361,1.356,0.736,2.03,1.109
	c0.67,0.371,1.338,0.743,2.007,1.128c0.105,0.061,0.21,0.125,0.314,0.185c-0.398,0.389-0.807,0.764-1.201,1.158
	c-8.67,8.671-16.342,18.288-22.801,28.587c-4.155,6.624-2.153,15.362,4.469,19.516c6.623,4.154,15.362,2.153,19.516-4.469
	c5.332-8.5,11.67-16.443,18.837-23.611c34.807-34.807,86.494-47.602,133.371-33.51c14.089,46.877,1.298,98.565-33.51,133.371
	c-34.809,34.808-86.5,47.602-133.375,33.508c-4.602-15.246-6.427-31.056-5.428-47.102c0.486-7.803-5.446-14.524-13.25-15.009
	c-7.798-0.487-14.524,5.446-15.009,13.25c-1.382,22.174,1.697,43.989,9.148,64.84c1.427,3.995,4.571,7.139,8.566,8.566
	c5.482,1.959,11.054,3.58,16.677,4.934v65.573c0,7.819,6.338,14.157,14.157,14.157h46.718c7.818,0,14.157-6.338,14.157-14.157
	v-65.327c29.392-6.863,56.197-21.748,77.659-43.21c22.137-22.137,37.304-49.951,43.859-80.431
	C421.415,279.208,419.401,248.453,409.209,219.937z M246.799,483.685v-47.197c3.219,0.191,6.441,0.323,9.669,0.323
	c2.911,0,5.823-0.079,8.735-0.236v47.109h-18.404V483.685z M141.733,203.647v-50.702h80.494c25.712,0,46.907,19.683,49.323,44.772
	c-0.096,1.584-0.161,3.177-0.161,4.785v17.177c-5.411,2.771-10.669,5.848-15.741,9.218c-31.937-21.253-69.878-30.265-107.417-26.058
	c-0.416,0.044-0.834,0.089-1.25,0.137c-0.685,0.082-1.37,0.173-2.056,0.263C143.862,203.373,142.795,203.492,141.733,203.647z
	 M311.703,205.542c-3.914,0.842-7.782,1.831-11.602,2.953v-5.993c0-1.608-0.065-3.201-0.161-4.785
	c2.415-25.089,23.61-44.772,49.323-44.772h21.006v50.8C350.9,200.813,331.072,201.377,311.703,205.542z"/>
<g>
</g>
<g>
</g>
<g>
</g>
<g>
</g>
<g>
</g>
<g>
</g>
<g>
</g>
<g>
</g>
<g>
</g>
<g>
</g>
<g>
</g>
<g>
</g>
<g>
</g>
<g>
</g>
<g>
</g>
</svg>
